<?xml version="1.0" standalone="no"?>
<!DOCTYPE svg PUBLIC "-//W3C//DTD SVG 20010904//EN"
 "http://www.w3.org/TR/2001/REC-SVG-20010904/DTD/svg10.dtd">
<svg version="1.0" xmlns="http://www.w3.org/2000/svg"
 width="200.000000pt" height="200.000000pt" viewBox="0 0 200.000000 200.000000"
 preserveAspectRatio="xMidYMid meet">
<metadata>
Created by potrace 1.14, written by Peter Selinger 2001-2017
</metadata>
<g transform="translate(0.000000,200.000000) scale(0.100000,-0.100000)"
fill="#000000" stroke="none">
<path d="M431 1278 l-53 -10 7 -61 c3 -34 8 -63 10 -65 2 -2 20 1 42 7 50 14
136 14 166 0 24 -11 47 -47 47 -73 0 -9 -23 -13 -90 -13 -76 -1 -98 -5 -142
-26 -68 -33 -92 -73 -93 -147 0 -142 113 -198 343 -171 56 7 110 15 118 18 14
5 15 33 12 212 -3 218 -5 229 -56 284 -48 51 -174 70 -311 45z m214 -383 l0
-60 -52 -3 c-33 -2 -63 3 -83 13 -27 14 -31 20 -28 53 4 47 33 63 108 60 l55
-3 0 -60z"/>
<path d="M1340 1284 c-19 -3 -59 -9 -87 -15 l-53 -10 0 -270 0 -269 80 0 80 0
0 214 0 214 30 6 c42 8 86 -3 107 -26 16 -18 18 -44 21 -214 l4 -194 80 0 80
0 -4 203 c-5 252 -18 291 -111 338 -38 20 -156 32 -227 23z"/>
<path d="M929 871 c-81 -81 17 -200 120 -146 33 16 41 33 41 80 0 47 -8 64
-41 80 -45 24 -87 19 -120 -14z"/>
</g>
</svg>
